<svg width="50" height="51" viewBox="0 0 50 51" fill="none" xmlns="http://www.w3.org/2000/svg">
<circle cx="24.9976" cy="25.5554" r="25" fill="#E29A0F"/>
<path d="M18.9976 24.5554C18.4453 24.5554 17.9976 25.0031 17.9976 25.5554C17.9976 26.1077 18.4453 26.5554 18.9976 26.5554V24.5554ZM32.6881 26.2625C33.0786 25.872 33.0786 25.2388 32.6881 24.8483L26.3241 18.4844C25.9336 18.0938 25.3004 18.0938 24.9099 18.4844C24.5194 18.8749 24.5194 19.508 24.9099 19.8986L30.5668 25.5554L24.9099 31.2123C24.5194 31.6028 24.5194 32.236 24.9099 32.6265C25.3004 33.017 25.9336 33.017 26.3241 32.6265L32.6881 26.2625ZM18.9976 26.5554H31.981V24.5554H18.9976V26.5554Z" fill="white"/>
</svg>
